<?xml version="1.0" encoding="utf-8"?>
<!-- Generator: Adobe Illustrator 22.1.0, SVG Export Plug-In . SVG Version: 6.00 Build 0)  -->
<svg version="1.1" id="Capa_1" xmlns="http://www.w3.org/2000/svg" xmlns:xlink="http://www.w3.org/1999/xlink" x="0px" y="0px"
	 viewBox="0 0 316 129" style="enable-background:new 0 0 316 129;" xml:space="preserve">
<style type="text/css">
	.st0{fill:url(#SVGID_1_);}
	.st1{fill:url(#SVGID_2_);}
	.st2{fill:url(#SVGID_3_);}
	.st3{fill:url(#SVGID_4_);}
	.st4{fill:url(#SVGID_5_);}
	.st5{fill:url(#SVGID_6_);}
	.st6{fill:url(#SVGID_7_);}
	.st7{fill:#00336D;}
</style>
<g>
	<radialGradient id="SVGID_1_" cx="20.5379" cy="37.7507" r="58.0846" gradientUnits="userSpaceOnUse">
		<stop  offset="0" style="stop-color:#00B3DD"/>
		<stop  offset="0.2461" style="stop-color:#0090BE"/>
		<stop  offset="0.9948" style="stop-color:#002762"/>
	</radialGradient>
	<path class="st0" d="M38.3,113.2C36.9,113.2,4,98.9,4,63.6c0-26.8,19.7-42.9,19.7-42.9s23.1,16.1,30.2,28.4
		c8.2,14.3,2.3,19.3-3.8,22.6c-5.5,3-13.4,7.9-15.5,9.4c-2,1.4-8.4,5.2-7,10C29.9,99.5,32.6,103.9,38.3,113.2z"/>
	<radialGradient id="SVGID_2_" cx="39.9229" cy="14.8622" r="91.6584" gradientUnits="userSpaceOnUse">
		<stop  offset="0" style="stop-color:#C71763"/>
		<stop  offset="0.4503" style="stop-color:#D91A6C"/>
		<stop  offset="0.9948" style="stop-color:#460F3F"/>
	</radialGradient>
	<path class="st1" d="M27.9,17.6c0,0,10.2-7.5,24.3-9.6c18.8-2.9,49.4,5.2,59.6,39.2c8.8,29.2-8.9,53.4-26.2,63.2
		c-11.8,6.7-24,7.2-24,7.2s-4.3-30,1.8-35.7c8.2-7.6,14.7-16.2,16.2-18.2c1.5-2,1.4-4.3-2.3-5.8c-2.6-2.1-8.4-5.8-12.4-12.6
		c-0.3-0.6,0-6.9,0-8.6c0-2.1-0.9-4.1-3.1-3.8c-1,0.1-3.6,1.1-5.9,2c-2,0.8-7.1,1-9.3-2.4C42.8,26.1,27.9,17.6,27.9,17.6z"/>
</g>
<g>
	<g>
		<linearGradient id="SVGID_3_" gradientUnits="userSpaceOnUse" x1="133.0659" y1="46.8056" x2="168.7299" y2="46.8056">
			<stop  offset="0" style="stop-color:#009DD1"/>
			<stop  offset="1" style="stop-color:#00336D"/>
		</linearGradient>
		<path class="st2" d="M168.6,37.2h-4c-1.2-2-2.8-3.6-4.9-4.8c-2.1-1.2-4.2-1.9-6.4-2.1c-0.2,0-0.5,0-0.7,0c-0.2,0-0.5,0-0.7,0
			c-4.1,0-7.7,1.6-10.7,4.9c-3,3.3-4.5,7.1-4.5,11.4c0,4.6,1.5,8.5,4.6,11.8c3.1,3.3,6.7,4.9,10.8,4.9c2.5,0,4.8-0.7,7.1-2
			c2.3-1.3,4.1-3,5.5-5.2l4-0.1c-1.6,3.3-3.9,5.9-6.9,7.9c-3,2-6.3,3-9.7,3c-5.3,0-9.8-2-13.5-5.9c-3.7-3.9-5.5-8.8-5.5-14.5
			c0-5.6,1.8-10.3,5.5-14.3c3.7-3.9,8.1-5.9,13.2-5.9c1.8,0,3.7,0.3,5.5,0.8c1.8,0.5,3.5,1.4,5,2.5c0.3,0.2,0.6,0.4,0.9,0.7
			c0.3,0.2,0.6,0.5,1,0.8c0.8,0.7,1.6,1.5,2.4,2.5c0.8,0.9,1.4,1.9,1.8,2.8c0,0.1,0.1,0.2,0.1,0.3C168.5,37.1,168.5,37.2,168.6,37.2
			L168.6,37.2z"/>
		<linearGradient id="SVGID_4_" gradientUnits="userSpaceOnUse" x1="178.4734" y1="46.7528" x2="198.3202" y2="46.7528">
			<stop  offset="0" style="stop-color:#009DD1"/>
			<stop  offset="1" style="stop-color:#00336D"/>
		</linearGradient>
		<path class="st3" d="M178.5,27.1h19.8v3.6h-16.2v14.1h15.7v3.6h-15.7v14.4h16.2v3.6h-19.8V27.1z"/>
		<linearGradient id="SVGID_5_" gradientUnits="userSpaceOnUse" x1="206.4745" y1="46.7528" x2="237.1286" y2="46.7528">
			<stop  offset="0" style="stop-color:#009DD1"/>
			<stop  offset="1" style="stop-color:#00336D"/>
		</linearGradient>
		<path class="st4" d="M206.5,27.1h9.8c2.6,0.1,5.1,0.4,7.5,1c2.4,0.6,4.6,1.8,6.7,3.6c2.1,1.8,3.7,4.1,4.9,6.7
			c1.2,2.7,1.8,5.4,1.8,8.2c0,2.8-0.5,5.5-1.6,8c-1,2.5-2.5,4.7-4.4,6.6c-2.2,2.1-4.4,3.5-6.9,4.1c-2.4,0.6-5,0.9-7.8,0.9h-10V27.1z
			 M214.8,62.8c2.4,0,4.7-0.2,6.9-0.5c2.2-0.3,4.2-1.3,6.2-3.1c1.8-1.6,3.2-3.4,4.2-5.6c0.9-2.2,1.4-4.5,1.4-7
			c0-2.5-0.5-4.9-1.4-6.9c-0.9-2.1-2.3-3.9-4.2-5.5c-2-1.7-4.1-2.7-6.2-3.1c-2.1-0.4-4.4-0.5-6.9-0.5h-4.7v32.1H214.8z"/>
		<linearGradient id="SVGID_6_" gradientUnits="userSpaceOnUse" x1="244.2849" y1="46.7528" x2="279.5558" y2="46.7528">
			<stop  offset="0" style="stop-color:#009DD1"/>
			<stop  offset="1" style="stop-color:#00336D"/>
		</linearGradient>
		<path class="st5" d="M260,27.1h4l15.6,39.3h-3.9l-5.3-13.2h-16.9l-5.3,13.2h-3.9L260,27.1z M268.9,49.6l-7-18l-7.1,18H268.9z"/>
		<linearGradient id="SVGID_7_" gradientUnits="userSpaceOnUse" x1="285.2221" y1="46.7528" x2="305.0676" y2="46.7528">
			<stop  offset="0" style="stop-color:#009DD1"/>
			<stop  offset="1" style="stop-color:#00336D"/>
		</linearGradient>
		<path class="st6" d="M285.2,27.1h19.8v3.6h-16.2v14.1h15.7v3.6h-15.7v14.4h16.2v3.6h-19.8V27.1z"/>
	</g>
	<g>
		<path class="st7" d="M133.8,95.6c-0.5,1.1-1.3,2-2.3,2.6c-1,0.6-2.1,0.9-3.4,0.9c-0.9,0-1.8-0.2-2.6-0.6c-0.8-0.4-1.6-0.9-2.2-1.6
			c-0.5-0.6-1-1.3-1.2-2.1c-0.3-0.8-0.4-1.6-0.4-2.5c0-0.9,0.2-1.7,0.5-2.5c0.3-0.8,0.8-1.5,1.5-2.2c0.6-0.6,1.3-1,2-1.4
			c0.4-0.2,0.8-0.3,1.2-0.4c0.4-0.1,0.8-0.1,1.3-0.1c1.3,0,2.4,0.3,3.4,0.9c1,0.6,1.8,1.5,2.3,2.6h-2.2c-0.4-0.5-0.9-1-1.5-1.3
			c-0.6-0.3-1.3-0.4-2-0.4c-0.6,0-1.2,0.1-1.7,0.3c-0.6,0.2-1,0.6-1.5,1c-0.4,0.4-0.8,0.9-1,1.6c-0.3,0.6-0.4,1.2-0.4,1.8
			c0,0.3,0,0.7,0.1,1c0.1,0.3,0.1,0.6,0.3,0.9c0.2,0.6,0.5,1.1,1,1.5c0.4,0.5,0.9,0.8,1.5,1.1l0.5,0.2l0.4,0.1l0.4,0.1l0.5,0
			c0.4,0,0.7,0,1.1-0.1c0.3-0.1,0.6-0.2,0.9-0.3c0.6-0.3,1-0.7,1.4-1.2H133.8z"/>
		<path class="st7" d="M136.9,94.6c0.1,0.8,0.5,1.4,1.1,2c0.6,0.5,1.3,0.8,2.1,0.8c0.6,0,1.1-0.1,1.6-0.4c0.5-0.3,0.8-0.7,1.1-1.2h2
			c-0.4,1.1-1.1,1.9-1.9,2.4c-0.8,0.6-1.7,0.9-2.8,0.9c-0.7,0-1.3-0.1-1.9-0.4c-0.6-0.2-1.1-0.6-1.6-1.1c-0.4-0.5-0.8-1-1.1-1.7
			l-0.1-0.3l-0.2-0.6l-0.1-0.5l0-0.5c0-0.3,0-0.7,0.1-1c0.1-0.3,0.1-0.6,0.3-0.9c0.1-0.3,0.3-0.6,0.4-0.9c0.2-0.3,0.4-0.5,0.6-0.8
			c0.5-0.5,1-0.9,1.6-1.2c0.6-0.3,1.3-0.4,2-0.4c0.8,0,1.6,0.2,2.3,0.6c0.7,0.4,1.3,0.9,1.8,1.7l0.2,0.3l0.2,0.4
			c0.1,0.1,0.1,0.2,0.1,0.3c0,0.1,0.1,0.2,0.1,0.4c0.1,0.3,0.1,0.5,0.2,0.8c0,0.3,0.1,0.6,0.1,1v0.3H136.9z M143.2,93
			c-0.2-0.8-0.6-1.4-1.1-1.9c-0.5-0.4-1.2-0.7-1.9-0.7c-0.8,0-1.4,0.2-2,0.7c-0.5,0.4-0.9,1.1-1.2,1.8H143.2z"/>
		<path class="st7" d="M148.3,98.8h-1.7v-9.7h1.7v1.1c0.4-0.4,0.8-0.8,1.2-1c0.4-0.2,0.9-0.3,1.5-0.3c1.3,0,2.2,0.4,2.9,1.1
			c0.7,0.7,1,1.8,1,3.2v5.5h-1.8v-5.1c0-1-0.2-1.8-0.6-2.3c-0.4-0.5-1-0.7-1.8-0.7c-0.8,0-1.5,0.3-1.9,0.9c-0.2,0.3-0.3,0.6-0.4,1.2
			c-0.1,0.5-0.2,1.1-0.2,1.7V98.8z"/>
		<path class="st7" d="M157.5,98.8v-8.1h-1.4v-1.6h1.4V86h1.7v3.1h1.4v1.6h-1.4v8.1H157.5z"/>
		<path class="st7" d="M163.6,98.8h-1.7v-9.7h1.6v1.1c0.3-0.4,0.6-0.7,1-1s0.8-0.3,1.3-0.3v1.8c-0.3,0-0.7,0.1-1,0.2
			c-0.3,0.1-0.5,0.3-0.7,0.5c-0.3,0.4-0.5,1-0.5,1.9V98.8z"/>
		<path class="st7" d="M166.5,94c0-0.7,0.1-1.3,0.3-1.9c0.2-0.6,0.6-1.2,1-1.7c0.5-0.5,1-0.9,1.6-1.2c0.6-0.3,1.3-0.4,1.9-0.4
			c0.7,0,1.4,0.1,2,0.4c0.6,0.2,1.1,0.6,1.6,1.1c0.5,0.5,0.8,1,1.1,1.6c0.3,0.6,0.4,1.3,0.4,1.9c0,0.7-0.1,1.3-0.3,1.9
			c-0.2,0.6-0.6,1.2-1,1.7c-0.2,0.2-0.5,0.5-0.8,0.7c-0.3,0.2-0.6,0.4-0.9,0.5c-0.6,0.3-1.3,0.4-2,0.4c-0.7,0-1.4-0.1-2-0.4
			c-0.6-0.3-1.1-0.6-1.6-1.1c-0.4-0.5-0.8-1-1.1-1.7l-0.1-0.3l-0.2-0.6l-0.1-0.5L166.5,94z M168.3,93.9c0,1,0.3,1.8,0.9,2.4
			c0.6,0.6,1.4,1,2.3,1c0.9,0,1.6-0.3,2.2-1c0.6-0.7,0.9-1.5,0.9-2.4c0-1-0.3-1.8-0.9-2.4c-0.6-0.6-1.4-1-2.3-1
			c-0.9,0-1.6,0.3-2.2,1C168.6,92.2,168.3,93,168.3,93.9z"/>
		<path class="st7" d="M186.8,98.8h-3.6V86h4.1c1.9,0,3.4,0.6,4.6,1.8c1.2,1.2,1.8,2.8,1.8,4.6c0,1.1-0.2,2.1-0.7,3
			c-0.4,0.9-1.1,1.6-1.9,2.2c-0.6,0.4-1.2,0.7-1.8,0.9C188.7,98.7,187.8,98.8,186.8,98.8z M185,97.1h2.3c1.4,0,2.6-0.4,3.4-1.2
			c0.8-0.8,1.2-2,1.2-3.4c0-1.5-0.4-2.6-1.3-3.5c-0.9-0.8-2.1-1.3-3.6-1.3H185V97.1z"/>
		<path class="st7" d="M196.6,94.6c0.1,0.8,0.5,1.4,1.1,2c0.6,0.5,1.3,0.8,2.1,0.8c0.6,0,1.1-0.1,1.6-0.4c0.5-0.3,0.8-0.7,1.1-1.2h2
			c-0.4,1.1-1.1,1.9-1.9,2.4c-0.8,0.6-1.7,0.9-2.8,0.9c-0.7,0-1.3-0.1-1.9-0.4c-0.6-0.2-1.1-0.6-1.6-1.1c-0.4-0.5-0.8-1-1.1-1.7
			l-0.1-0.3l-0.2-0.6l-0.1-0.5l0-0.5c0-0.3,0-0.7,0.1-1c0.1-0.3,0.1-0.6,0.3-0.9c0.1-0.3,0.3-0.6,0.4-0.9c0.2-0.3,0.4-0.5,0.6-0.8
			c0.5-0.5,1-0.9,1.6-1.2c0.6-0.3,1.3-0.4,2-0.4c0.8,0,1.6,0.2,2.3,0.6c0.7,0.4,1.3,0.9,1.8,1.7l0.2,0.3l0.2,0.4
			c0.1,0.1,0.1,0.2,0.1,0.3c0,0.1,0.1,0.2,0.1,0.4c0.1,0.3,0.1,0.5,0.2,0.8c0,0.3,0.1,0.6,0.1,1v0.3H196.6z M202.9,93
			c-0.2-0.8-0.6-1.4-1.1-1.9c-0.5-0.4-1.2-0.7-1.9-0.7c-0.8,0-1.4,0.2-2,0.7c-0.5,0.4-0.9,1.1-1.2,1.8H202.9z"/>
		<path class="st7" d="M208,98.8h-1.7v-9.7h1.6v1.1c0.3-0.4,0.6-0.7,1-1c0.4-0.2,0.8-0.3,1.3-0.3v1.8c-0.3,0-0.7,0.1-1,0.2
			c-0.3,0.1-0.5,0.3-0.7,0.5c-0.3,0.4-0.5,1-0.5,1.9V98.8z"/>
		<path class="st7" d="M217.5,93.9c0-1.2-0.2-2-0.5-2.6c-0.3-0.5-0.9-0.8-1.6-0.8c-0.7,0-1.3,0.3-1.7,0.8c-0.4,0.6-0.5,1.4-0.5,2.5
			v5h-1.7v-9.7h1.5v1.1c0.3-0.4,0.6-0.7,1.1-1c0.4-0.2,0.9-0.3,1.4-0.3c0.7,0,1.3,0.1,1.7,0.4c0.5,0.3,0.9,0.7,1.2,1.3
			c0.3-0.5,0.7-1,1.2-1.2c0.5-0.3,1.1-0.4,1.8-0.4c1.1,0,2,0.4,2.6,1.1c0.7,0.7,1,1.7,1,2.9v5.9h-1.8v-5.6c0-0.8-0.2-1.5-0.5-1.9
			c-0.4-0.5-0.9-0.7-1.5-0.7c-0.8,0-1.3,0.2-1.6,0.7c-0.3,0.5-0.5,1.3-0.5,2.5v5.1h-1.7V93.9z"/>
		<path class="st7" d="M235,98.8v-1.2c-0.4,0.4-0.9,0.8-1.5,1c-0.6,0.2-1.2,0.4-1.8,0.4c-1.4,0-2.6-0.5-3.6-1.5
			c-1-1-1.5-2.2-1.5-3.6c0-0.7,0.1-1.4,0.4-1.9c0.2-0.6,0.6-1.1,1-1.6c0.1-0.1,0.1-0.1,0.1-0.1c0,0,0.1-0.1,0.2-0.2l0.4-0.3
			c0.3-0.2,0.5-0.3,0.8-0.5c0.6-0.2,1.2-0.4,2-0.4c0.7,0,1.3,0.1,1.8,0.3c0.5,0.2,1.1,0.6,1.5,1.1v-1.2h1.8v9.7H235z M228.4,93.9
			c0,1,0.3,1.8,1,2.5c0.6,0.7,1.4,1,2.4,1c0.8,0,1.6-0.3,2.2-1c0.7-0.7,1-1.4,1-2.3c0-0.9-0.3-1.7-1-2.4c-0.6-0.7-1.4-1-2.3-1
			c-0.9,0-1.7,0.3-2.3,1C228.8,92.2,228.4,92.9,228.4,93.9z"/>
		<path class="st7" d="M239.3,98.8v-8.1H238v-1.6h1.4V86h1.7v3.1h1.4v1.6h-1.4v8.1H239.3z"/>
		<path class="st7" d="M243.1,94c0-0.7,0.1-1.3,0.3-1.9c0.2-0.6,0.6-1.2,1-1.7c0.5-0.5,1-0.9,1.6-1.2c0.6-0.3,1.3-0.4,1.9-0.4
			c0.7,0,1.4,0.1,2,0.4c0.6,0.2,1.1,0.6,1.6,1.1c0.5,0.5,0.8,1,1.1,1.6c0.3,0.6,0.4,1.3,0.4,1.9c0,0.7-0.1,1.3-0.3,1.9
			c-0.2,0.6-0.6,1.2-1,1.7c-0.2,0.2-0.5,0.5-0.8,0.7c-0.3,0.2-0.6,0.4-0.9,0.5c-0.6,0.3-1.3,0.4-2,0.4c-0.7,0-1.4-0.1-2-0.4
			c-0.6-0.3-1.1-0.6-1.6-1.1c-0.4-0.5-0.8-1-1.1-1.7l-0.1-0.3l-0.2-0.6l-0.1-0.5L243.1,94z M244.9,93.9c0,1,0.3,1.8,0.9,2.4
			c0.6,0.6,1.4,1,2.3,1c0.9,0,1.6-0.3,2.2-1c0.6-0.7,0.9-1.5,0.9-2.4c0-1-0.3-1.8-0.9-2.4c-0.6-0.6-1.4-1-2.3-1
			c-0.9,0-1.6,0.3-2.2,1C245.2,92.2,244.9,93,244.9,93.9z M246.9,87.9l1.8-3.1h1.8l-2.5,3.1H246.9z"/>
		<path class="st7" d="M254.6,98.8V86h1.7v12.8H254.6z"/>
		<path class="st7" d="M257.8,94c0-0.7,0.1-1.3,0.3-1.9c0.2-0.6,0.6-1.2,1-1.7c0.5-0.5,1-0.9,1.6-1.2c0.6-0.3,1.3-0.4,1.9-0.4
			c0.7,0,1.4,0.1,2,0.4c0.6,0.2,1.1,0.6,1.6,1.1c0.5,0.5,0.8,1,1.1,1.6c0.3,0.6,0.4,1.3,0.4,1.9c0,0.7-0.1,1.3-0.3,1.9
			c-0.2,0.6-0.6,1.2-1,1.7c-0.2,0.2-0.5,0.5-0.8,0.7c-0.3,0.2-0.6,0.4-0.9,0.5c-0.6,0.3-1.3,0.4-2,0.4c-0.7,0-1.4-0.1-2-0.4
			c-0.6-0.3-1.1-0.6-1.6-1.1c-0.4-0.5-0.8-1-1.1-1.7l-0.1-0.3l-0.2-0.6l-0.1-0.5L257.8,94z M259.6,93.9c0,1,0.3,1.8,0.9,2.4
			c0.6,0.6,1.4,1,2.3,1c0.9,0,1.6-0.3,2.2-1c0.6-0.7,0.9-1.5,0.9-2.4c0-1-0.3-1.8-0.9-2.4c-0.6-0.6-1.4-1-2.3-1
			c-0.9,0-1.6,0.3-2.2,1C260,92.2,259.6,93,259.6,93.9z"/>
		<path class="st7" d="M269.5,99.6h1.9c0.3,0.5,0.6,0.8,1.1,1c0.4,0.2,0.9,0.4,1.5,0.4c1,0,1.8-0.3,2.4-0.9c0.6-0.6,0.9-1.4,0.9-2.3
			v-0.1c-0.4,0.4-0.9,0.8-1.5,1c-0.6,0.2-1.2,0.4-1.8,0.4c-1.4,0-2.6-0.5-3.6-1.5c-1-1-1.5-2.2-1.5-3.6c0-0.7,0.1-1.4,0.4-1.9
			c0.2-0.6,0.6-1.1,1-1.6c0.1-0.1,0.1-0.1,0.1-0.1c0,0,0.1-0.1,0.2-0.2l0.4-0.3c0.3-0.2,0.5-0.3,0.8-0.5c0.6-0.2,1.2-0.4,2-0.4
			c0.7,0,1.3,0.1,1.8,0.3c0.6,0.2,1.1,0.6,1.6,1.1v-1.2h1.7v8.1c0,1.7-0.4,3-1.3,4c-0.9,1-2.1,1.4-3.6,1.4c-1.1,0-2.1-0.3-2.8-0.8
			C270.4,101.3,269.8,100.5,269.5,99.6z M270.6,93.9c0,1,0.3,1.8,1,2.5c0.6,0.7,1.4,1,2.4,1c0.8,0,1.6-0.3,2.2-1
			c0.7-0.7,1-1.4,1-2.3c0-0.9-0.3-1.7-1-2.4c-0.6-0.7-1.4-1-2.3-1c-0.9,0-1.7,0.3-2.3,1C271,92.2,270.6,92.9,270.6,93.9z"/>
		<path class="st7" d="M282.7,88h-1.7v-2h1.7V88z M280.9,98.8v-9.7h1.7v9.7H280.9z"/>
		<path class="st7" d="M293.9,95.5c-0.4,1.1-1,2-1.8,2.6c-0.8,0.6-1.8,0.9-2.9,0.9c-0.7,0-1.3-0.1-2-0.4c-0.3-0.1-0.6-0.3-0.8-0.5
			c-0.3-0.2-0.5-0.4-0.8-0.7c-0.4-0.5-0.8-1-1.1-1.7l-0.1-0.3l-0.2-0.6l-0.1-0.5l0-0.5c0-0.3,0-0.6,0.1-1c0.1-0.3,0.1-0.6,0.3-0.9
			c0.2-0.6,0.6-1.1,1-1.6c0.5-0.5,1.1-0.9,1.7-1.2c0.6-0.3,1.3-0.4,2-0.4c1.1,0,2.1,0.3,2.9,0.9c0.8,0.6,1.4,1.5,1.8,2.6H292
			c-0.3-0.6-0.7-1-1.2-1.3c-0.5-0.3-1.1-0.4-1.7-0.4c-0.8,0-1.6,0.3-2.2,1c-0.6,0.7-0.9,1.5-0.9,2.4c0,1,0.3,1.8,0.9,2.4
			c0.6,0.6,1.4,1,2.3,1c0.6,0,1.1-0.2,1.6-0.5c0.5-0.3,0.9-0.8,1.2-1.4H293.9z"/>
		<path class="st7" d="M295.1,94c0-0.7,0.1-1.3,0.3-1.9c0.2-0.6,0.6-1.2,1-1.7c0.5-0.5,1-0.9,1.6-1.2c0.6-0.3,1.3-0.4,1.9-0.4
			c0.7,0,1.4,0.1,2,0.4c0.6,0.2,1.1,0.6,1.6,1.1c0.5,0.5,0.8,1,1.1,1.6c0.3,0.6,0.4,1.3,0.4,1.9c0,0.7-0.1,1.3-0.3,1.9
			c-0.2,0.6-0.6,1.2-1,1.7c-0.2,0.2-0.5,0.5-0.8,0.7c-0.3,0.2-0.6,0.4-0.9,0.5c-0.6,0.3-1.3,0.4-2,0.4c-0.7,0-1.4-0.1-2-0.4
			c-0.6-0.3-1.1-0.6-1.6-1.1c-0.4-0.5-0.8-1-1.1-1.7l-0.1-0.3l-0.2-0.6l-0.1-0.5L295.1,94z M296.9,93.9c0,1,0.3,1.8,0.9,2.4
			c0.6,0.6,1.4,1,2.3,1c0.9,0,1.6-0.3,2.2-1c0.6-0.7,0.9-1.5,0.9-2.4c0-1-0.3-1.8-0.9-2.4c-0.6-0.6-1.4-1-2.3-1
			c-0.9,0-1.6,0.3-2.2,1C297.2,92.2,296.9,93,296.9,93.9z"/>
		<path class="st7" d="M141.7,114.4v-1.2c-0.4,0.4-0.9,0.8-1.5,1c-0.6,0.2-1.2,0.4-1.8,0.4c-1.4,0-2.6-0.5-3.6-1.5
			c-1-1-1.5-2.2-1.5-3.6c0-0.7,0.1-1.4,0.4-1.9c0.2-0.6,0.6-1.1,1-1.6c0.1-0.1,0.1-0.1,0.1-0.1c0,0,0.1-0.1,0.2-0.2l0.4-0.3
			c0.3-0.2,0.5-0.3,0.8-0.5c0.6-0.2,1.2-0.4,2-0.4c0.7,0,1.3,0.1,1.8,0.3c0.6,0.2,1.1,0.6,1.6,1.1v-4.3h1.7v12.8H141.7z
			 M135.2,109.5c0,1,0.3,1.8,1,2.5c0.6,0.7,1.4,1,2.4,1c0.8,0,1.6-0.3,2.2-1c0.7-0.7,1-1.4,1-2.3c0-0.9-0.3-1.7-1-2.4
			c-0.6-0.7-1.4-1-2.3-1c-0.9,0-1.7,0.3-2.3,1C135.5,107.8,135.2,108.6,135.2,109.5z"/>
		<path class="st7" d="M146.8,110.2c0.1,0.8,0.5,1.4,1.1,2c0.6,0.5,1.3,0.8,2.1,0.8c0.6,0,1.1-0.1,1.6-0.4c0.5-0.3,0.8-0.7,1.1-1.2
			h2c-0.4,1.1-1.1,1.9-1.9,2.4c-0.8,0.6-1.7,0.9-2.8,0.9c-0.7,0-1.3-0.1-1.9-0.4c-0.6-0.2-1.1-0.6-1.6-1.1c-0.4-0.5-0.8-1-1.1-1.7
			l-0.1-0.3l-0.2-0.6l-0.1-0.5l0-0.5c0-0.3,0-0.7,0.1-1c0.1-0.3,0.1-0.6,0.3-0.9c0.1-0.3,0.3-0.6,0.4-0.9c0.2-0.3,0.4-0.5,0.6-0.8
			c0.5-0.5,1-0.9,1.6-1.2c0.6-0.3,1.3-0.4,2-0.4c0.8,0,1.6,0.2,2.3,0.6c0.7,0.4,1.3,0.9,1.8,1.7l0.2,0.3l0.2,0.4
			c0.1,0.1,0.1,0.2,0.1,0.3c0,0.1,0.1,0.2,0.1,0.4c0.1,0.3,0.1,0.5,0.2,0.8c0,0.3,0.1,0.6,0.1,1v0.3H146.8z M153,108.6
			c-0.2-0.8-0.6-1.4-1.1-1.9c-0.5-0.4-1.2-0.7-1.9-0.7s-1.4,0.2-2,0.7c-0.5,0.4-0.9,1.1-1.2,1.8H153z"/>
		<path class="st7" d="M163.4,110.7l-1.4,3.7l-2,0l5-12.8h1.8l5,12.8l-2,0l-1.4-3.7H163.4z M167.7,108.9l-1.8-4.9l-1.8,4.9H167.7z"
			/>
		<path class="st7" d="M172.5,114.4v-12.8h1.7v12.8H172.5z"/>
		<path class="st7" d="M176.8,114.4v-8.1h-1.4v-1.6h1.4v-3.1h1.7v3.1h1.4v1.6h-1.4v8.1H176.8z"/>
		<path class="st7" d="M189,114.4v-1.2c-0.4,0.4-0.9,0.8-1.5,1c-0.6,0.2-1.2,0.4-1.8,0.4c-1.4,0-2.6-0.5-3.6-1.5
			c-1-1-1.5-2.2-1.5-3.6c0-0.7,0.1-1.4,0.4-1.9c0.2-0.6,0.6-1.1,1-1.6c0.1-0.1,0.1-0.1,0.1-0.1c0,0,0.1-0.1,0.2-0.2l0.4-0.3
			c0.3-0.2,0.5-0.3,0.8-0.5c0.6-0.2,1.2-0.4,2-0.4c0.7,0,1.3,0.1,1.8,0.3c0.5,0.2,1.1,0.6,1.5,1.1v-1.2h1.8v9.7H189z M182.5,109.5
			c0,1,0.3,1.8,1,2.5c0.6,0.7,1.4,1,2.4,1c0.8,0,1.6-0.3,2.2-1c0.7-0.7,1-1.4,1-2.3c0-0.9-0.3-1.7-1-2.4c-0.6-0.7-1.4-1-2.3-1
			c-0.9,0-1.7,0.3-2.3,1C182.8,107.8,182.5,108.6,182.5,109.5z"/>
		<path class="st7" d="M204.7,114.4h-6.7v-12.8h6.7v1.7h-4.8v3.8h4.8v1.7h-4.8v3.8h4.8V114.4z"/>
		<path class="st7" d="M206.2,111.3h1.6c0,0.5,0.1,0.9,0.4,1.3c0.3,0.3,0.6,0.5,1.1,0.5c0.4,0,0.7-0.1,1-0.4c0.3-0.2,0.4-0.6,0.4-1
			c0-0.3-0.1-0.6-0.3-0.8c-0.2-0.2-0.5-0.4-0.9-0.6L209,110c-0.7-0.2-1.1-0.5-1.3-0.6c-0.3-0.3-0.6-0.6-0.8-0.9
			c-0.1-0.2-0.1-0.4-0.2-0.6l0-0.3v-0.3c0-0.7,0.3-1.4,0.8-2c0.5-0.6,1.2-0.9,2-0.9c0.8,0,1.5,0.2,2,0.7c0.2,0.2,0.4,0.5,0.6,0.9
			c0.1,0.4,0.2,0.7,0.2,1.2h-1.7c0-0.2,0-0.3-0.1-0.5c-0.1-0.1-0.1-0.3-0.3-0.4c-0.2-0.2-0.5-0.3-0.8-0.3c-0.3,0-0.6,0.1-0.8,0.3
			c-0.2,0.2-0.3,0.5-0.3,0.8c0,0.5,0.5,1,1.4,1.3l0.6,0.2c0.7,0.3,1.2,0.7,1.6,1.1c0.3,0.4,0.5,1,0.5,1.8c0,0.9-0.3,1.6-0.9,2.2
			c-0.6,0.6-1.3,0.9-2.2,0.9c-0.9,0-1.6-0.3-2.2-0.9c-0.3-0.3-0.5-0.7-0.7-1.1c-0.1-0.2-0.1-0.4-0.2-0.6c0-0.1,0-0.2,0-0.4
			C206.2,111.5,206.2,111.4,206.2,111.3z"/>
		<path class="st7" d="M215.6,113.2v4.3h-1.7v-12.8h1.7v1.2c0.4-0.5,0.9-0.8,1.5-1c0.6-0.2,1.1-0.4,1.8-0.4c1.4,0,2.7,0.5,3.6,1.5
			c1,1,1.5,2.2,1.5,3.6c0,0.7-0.1,1.3-0.3,1.9c-0.2,0.6-0.6,1.1-1.1,1.6c-0.5,0.5-1,0.9-1.6,1.1c-0.6,0.2-1.2,0.4-2,0.4
			c-0.7,0-1.3-0.1-1.8-0.4C216.6,114.1,216.1,113.7,215.6,113.2z M215.5,109.5c0,0.9,0.3,1.8,1,2.4c0.6,0.7,1.4,1,2.3,1
			c0.9,0,1.7-0.3,2.3-1c0.7-0.6,1-1.4,1-2.4c0-1-0.3-1.8-1-2.5c-0.6-0.7-1.4-1-2.4-1c-0.8,0-1.6,0.3-2.2,1
			C215.9,107.8,215.5,108.6,215.5,109.5z"/>
		<path class="st7" d="M226.8,110.2c0.1,0.8,0.5,1.4,1.1,2c0.6,0.5,1.3,0.8,2.1,0.8c0.6,0,1.1-0.1,1.6-0.4c0.5-0.3,0.8-0.7,1.1-1.2
			h2c-0.4,1.1-1.1,1.9-1.9,2.4c-0.8,0.6-1.7,0.9-2.8,0.9c-0.7,0-1.3-0.1-1.9-0.4c-0.6-0.2-1.1-0.6-1.6-1.1c-0.4-0.5-0.8-1-1.1-1.7
			l-0.1-0.3l-0.2-0.6l-0.1-0.5l0-0.5c0-0.3,0-0.7,0.1-1s0.1-0.6,0.3-0.9c0.1-0.3,0.3-0.6,0.4-0.9c0.2-0.3,0.4-0.5,0.6-0.8
			c0.5-0.5,1-0.9,1.6-1.2c0.6-0.3,1.3-0.4,2-0.4c0.8,0,1.6,0.2,2.3,0.6c0.7,0.4,1.3,0.9,1.8,1.7l0.2,0.3l0.2,0.4
			c0.1,0.1,0.1,0.2,0.1,0.3c0,0.1,0.1,0.2,0.1,0.4c0.1,0.3,0.1,0.5,0.2,0.8c0,0.3,0.1,0.6,0.1,1v0.3H226.8z M233,108.6
			c-0.2-0.8-0.6-1.4-1.1-1.9c-0.5-0.4-1.2-0.7-1.9-0.7c-0.8,0-1.4,0.2-2,0.7c-0.5,0.4-0.9,1.1-1.2,1.8H233z"/>
		<path class="st7" d="M245.6,111.1c-0.4,1.1-1,2-1.8,2.6c-0.8,0.6-1.8,0.9-2.9,0.9c-0.7,0-1.3-0.1-2-0.4c-0.3-0.1-0.6-0.3-0.8-0.5
			c-0.3-0.2-0.5-0.4-0.8-0.7c-0.4-0.5-0.8-1-1.1-1.7l-0.1-0.3l-0.2-0.6l-0.1-0.5l0-0.5c0-0.3,0-0.6,0.1-1c0.1-0.3,0.1-0.6,0.3-0.9
			c0.2-0.6,0.6-1.1,1-1.6c0.5-0.5,1.1-0.9,1.7-1.2c0.6-0.3,1.3-0.4,2-0.4c1.1,0,2.1,0.3,2.9,0.9c0.8,0.6,1.4,1.5,1.8,2.6h-1.9
			c-0.3-0.6-0.7-1-1.2-1.3c-0.5-0.3-1.1-0.4-1.7-0.4c-0.8,0-1.6,0.3-2.2,1c-0.6,0.7-0.9,1.5-0.9,2.4c0,1,0.3,1.8,0.9,2.4
			c0.6,0.6,1.4,1,2.3,1c0.6,0,1.1-0.2,1.6-0.5c0.5-0.3,0.9-0.8,1.2-1.4H245.6z"/>
		<path class="st7" d="M249.1,103.6h-1.7v-2h1.7V103.6z M247.4,114.4v-9.7h1.7v9.7H247.4z"/>
		<path class="st7" d="M259,114.4v-1.2c-0.4,0.4-0.9,0.8-1.5,1c-0.6,0.2-1.2,0.4-1.8,0.4c-1.4,0-2.6-0.5-3.6-1.5
			c-1-1-1.5-2.2-1.5-3.6c0-0.7,0.1-1.4,0.4-1.9c0.2-0.6,0.6-1.1,1-1.6c0.1-0.1,0.1-0.1,0.1-0.1c0,0,0.1-0.1,0.2-0.2l0.4-0.3
			c0.3-0.2,0.5-0.3,0.8-0.5c0.6-0.2,1.2-0.4,2-0.4c0.7,0,1.3,0.1,1.8,0.3c0.5,0.2,1.1,0.6,1.5,1.1v-1.2h1.8v9.7H259z M252.5,109.5
			c0,1,0.3,1.8,1,2.5c0.6,0.7,1.4,1,2.4,1c0.8,0,1.6-0.3,2.2-1c0.7-0.7,1-1.4,1-2.3c0-0.9-0.3-1.7-1-2.4c-0.6-0.7-1.4-1-2.3-1
			c-0.9,0-1.7,0.3-2.3,1C252.8,107.8,252.5,108.6,252.5,109.5z"/>
		<path class="st7" d="M262.8,114.4v-12.8h1.7v12.8H262.8z"/>
		<path class="st7" d="M268.3,103.6h-1.7v-2h1.7V103.6z M266.6,114.4v-9.7h1.7v9.7H266.6z"/>
		<path class="st7" d="M278.2,114.4v-1.2c-0.4,0.4-0.9,0.8-1.5,1c-0.6,0.2-1.2,0.4-1.8,0.4c-1.4,0-2.6-0.5-3.6-1.5
			c-1-1-1.5-2.2-1.5-3.6c0-0.7,0.1-1.4,0.4-1.9c0.2-0.6,0.6-1.1,1-1.6c0.1-0.1,0.1-0.1,0.1-0.1c0,0,0.1-0.1,0.2-0.2l0.4-0.3
			c0.3-0.2,0.5-0.3,0.8-0.5c0.6-0.2,1.2-0.4,2-0.4c0.7,0,1.3,0.1,1.8,0.3c0.6,0.2,1.1,0.6,1.6,1.1v-4.3h1.7v12.8H278.2z
			 M271.7,109.5c0,1,0.3,1.8,1,2.5c0.6,0.7,1.4,1,2.4,1c0.8,0,1.6-0.3,2.2-1c0.7-0.7,1-1.4,1-2.3c0-0.9-0.3-1.7-1-2.4
			c-0.6-0.7-1.4-1-2.3-1c-0.9,0-1.7,0.3-2.3,1C272,107.8,271.7,108.6,271.7,109.5z"/>
		<path class="st7" d="M289.8,114.4v-1.2c-0.4,0.4-0.9,0.8-1.5,1c-0.6,0.2-1.2,0.4-1.8,0.4c-1.4,0-2.6-0.5-3.6-1.5
			c-1-1-1.5-2.2-1.5-3.6c0-0.7,0.1-1.4,0.4-1.9c0.2-0.6,0.6-1.1,1-1.6c0.1-0.1,0.1-0.1,0.1-0.1c0,0,0.1-0.1,0.2-0.2l0.4-0.3
			c0.3-0.2,0.5-0.3,0.8-0.5c0.6-0.2,1.2-0.4,2-0.4c0.7,0,1.3,0.1,1.8,0.3c0.5,0.2,1.1,0.6,1.5,1.1v-1.2h1.8v9.7H289.8z M283.3,109.5
			c0,1,0.3,1.8,1,2.5c0.6,0.7,1.4,1,2.4,1c0.8,0,1.6-0.3,2.2-1c0.7-0.7,1-1.4,1-2.3c0-0.9-0.3-1.7-1-2.4c-0.6-0.7-1.4-1-2.3-1
			c-0.9,0-1.7,0.3-2.3,1C283.6,107.8,283.3,108.6,283.3,109.5z"/>
		<path class="st7" d="M301.4,114.4v-1.2c-0.4,0.4-0.9,0.8-1.5,1c-0.6,0.2-1.2,0.4-1.8,0.4c-1.4,0-2.6-0.5-3.6-1.5
			c-1-1-1.5-2.2-1.5-3.6c0-0.7,0.1-1.4,0.4-1.9c0.2-0.6,0.6-1.1,1-1.6c0.1-0.1,0.1-0.1,0.1-0.1c0,0,0.1-0.1,0.2-0.2l0.4-0.3
			c0.3-0.2,0.5-0.3,0.8-0.5c0.6-0.2,1.2-0.4,2-0.4c0.7,0,1.3,0.1,1.8,0.3c0.6,0.2,1.1,0.6,1.6,1.1v-4.3h1.7v12.8H301.4z
			 M294.9,109.5c0,1,0.3,1.8,1,2.5c0.6,0.7,1.4,1,2.4,1c0.8,0,1.6-0.3,2.2-1c0.7-0.7,1-1.4,1-2.3c0-0.9-0.3-1.7-1-2.4
			c-0.6-0.7-1.4-1-2.3-1c-0.9,0-1.7,0.3-2.3,1C295.2,107.8,294.9,108.6,294.9,109.5z"/>
	</g>
</g>
</svg>
